<svg id="icon" xmlns="http://www.w3.org/2000/svg" width="24" height="25.184" viewBox="0 0 24 25.184">
  <path id="線_12" data-name="線 12" d="M17.392,1H.408A.461.461,0,0,1,0,.5.461.461,0,0,1,.408,0H17.392A.461.461,0,0,1,17.8.5.461.461,0,0,1,17.392,1Z" transform="translate(12.5 3.69) rotate(90)" fill="#4f636e"/>
  <path id="線_13" data-name="線 13" d="M3.285,3.785a.5.5,0,0,1-.354-.146L-.354.354a.5.5,0,0,1,0-.707.5.5,0,0,1,.707,0L3.638,2.931a.5.5,0,0,1-.354.854Z" transform="translate(8.715 5.475)" fill="#4f636e"/>
  <path id="線_19" data-name="線 19" d="M0,3.785a.5.5,0,0,1-.354-.146.5.5,0,0,1,0-.707L2.931-.354a.5.5,0,0,1,.707,0,.5.5,0,0,1,0,.707L.354,3.638A.5.5,0,0,1,0,3.785Z" transform="translate(8.715 16.425)" fill="#4f636e"/>
  <path id="線_14" data-name="線 14" d="M0,3.785a.5.5,0,0,1-.354-.146.5.5,0,0,1,0-.707L2.931-.354a.5.5,0,0,1,.707,0,.5.5,0,0,1,0,.707L.354,3.638A.5.5,0,0,1,0,3.785Z" transform="translate(12 5.475)" fill="#4f636e"/>
  <path id="線_20" data-name="線 20" d="M3.285,3.785a.5.5,0,0,1-.354-.146L-.354.354a.5.5,0,0,1,0-.707.5.5,0,0,1,.707,0L3.638,2.931a.5.5,0,0,1-.354.854Z" transform="translate(12 16.425)" fill="#4f636e"/>
  <path id="楕円形_15_-_アウトライン" data-name="楕円形 15 - アウトライン" d="M2.19,1A1.19,1.19,0,1,0,3.38,2.19,1.191,1.191,0,0,0,2.19,1m0-1A2.19,2.19,0,1,1,0,2.19,2.19,2.19,0,0,1,2.19,0Z" transform="translate(9.81)" fill="#4f636e"/>
  <path id="楕円形_16_-_アウトライン" data-name="楕円形 16 - アウトライン" d="M2.19,1A1.19,1.19,0,1,0,3.38,2.19,1.191,1.191,0,0,0,2.19,1m0-1A2.19,2.19,0,1,1,0,2.19,2.19,2.19,0,0,1,2.19,0Z" transform="translate(9.81 20.804)" fill="#4f636e"/>
  <path id="線_12-2" data-name="線 12" d="M17.392,1H.408A.461.461,0,0,1,0,.5.461.461,0,0,1,.408,0H17.392A.461.461,0,0,1,17.8.5.461.461,0,0,1,17.392,1Z" transform="translate(4.542 7.707) rotate(30)" fill="#4f636e"/>
  <path id="線_13-2" data-name="線 13" d="M3.785,4.285a.5.5,0,0,1-.354-.146L.146.854A.5.5,0,0,1,.854.146L4.138,3.431a.5.5,0,0,1-.354.854Z" transform="translate(3.511 12.061) rotate(-60)" fill="#4f636e"/>
  <path id="線_19-2" data-name="線 19" d="M.5,4.285a.5.5,0,0,1-.354-.854L3.431.146a.5.5,0,1,1,.707.707L.854,4.138A.5.5,0,0,1,.5,4.285Z" transform="translate(12.993 17.536) rotate(-60)" fill="#4f636e"/>
  <path id="線_14-2" data-name="線 14" d="M.5,4.285a.5.5,0,0,1-.354-.854L3.431.146a.5.5,0,1,1,.707.707L.854,4.138A.5.5,0,0,1,.5,4.285Z" transform="translate(5.153 9.216) rotate(-60)" fill="#4f636e"/>
  <path id="線_20-2" data-name="線 20" d="M3.785,4.285a.5.5,0,0,1-.354-.146L.146.854A.5.5,0,0,1,.854.146L4.138,3.431a.5.5,0,0,1-.354.854Z" transform="translate(14.636 14.691) rotate(-60)" fill="#4f636e"/>
  <path id="楕円形_15_-_アウトライン-2" data-name="楕円形 15 - アウトライン" d="M2.19,1A1.19,1.19,0,1,0,3.38,2.19,1.191,1.191,0,0,0,2.19,1m0-1A2.19,2.19,0,1,1,0,2.19,2.19,2.19,0,0,1,2.19,0Z" transform="translate(0 8.192) rotate(-60)" fill="#4f636e"/>
  <path id="楕円形_16_-_アウトライン-2" data-name="楕円形 16 - アウトライン" d="M2.19,1A1.19,1.19,0,1,0,3.38,2.19,1.191,1.191,0,0,0,2.19,1m0-1A2.19,2.19,0,1,1,0,2.19,2.19,2.19,0,0,1,2.19,0Z" transform="translate(18.017 18.595) rotate(-60)" fill="#4f636e"/>
  <path id="線_12-3" data-name="線 12" d="M17.392,1H.408A.461.461,0,0,1,0,.5.461.461,0,0,1,.408,0H17.392A.461.461,0,0,1,17.8.5.461.461,0,0,1,17.392,1Z" transform="translate(4.042 16.607) rotate(-30)" fill="#4f636e"/>
  <path id="線_13-3" data-name="線 13" d="M3.785,4.285a.5.5,0,0,1-.354-.146L.146.854A.5.5,0,0,1,.854.146L4.138,3.431a.5.5,0,0,1-.354.854Z" transform="translate(7.296 19.679) rotate(-120)" fill="#4f636e"/>
  <path id="線_19-3" data-name="線 19" d="M.5,4.285a.5.5,0,0,1-.354-.854L3.431.146a.5.5,0,1,1,.707.707L.854,4.138A.5.5,0,0,1,.5,4.285Z" transform="translate(16.778 14.204) rotate(-120)" fill="#4f636e"/>
  <path id="線_14-3" data-name="線 14" d="M.5,4.285a.5.5,0,0,1-.354-.854L3.431.146a.5.5,0,1,1,.707.707L.854,4.138A.5.5,0,0,1,.5,4.285Z" transform="translate(5.653 16.834) rotate(-120)" fill="#4f636e"/>
  <path id="線_20-3" data-name="線 20" d="M3.785,4.285a.5.5,0,0,1-.354-.146L.146.854A.5.5,0,0,1,.854.146L4.138,3.431a.5.5,0,0,1-.354.854Z" transform="translate(15.136 11.359) rotate(-120)" fill="#4f636e"/>
  <path id="楕円形_15_-_アウトライン-3" data-name="楕円形 15 - アウトライン" d="M2.19,1A1.19,1.19,0,1,0,3.38,2.19,1.191,1.191,0,0,0,2.19,1m0-1A2.19,2.19,0,1,1,0,2.19,2.19,2.19,0,0,1,2.19,0Z" transform="translate(2.19 20.785) rotate(-120)" fill="#4f636e"/>
  <path id="楕円形_16_-_アウトライン-3" data-name="楕円形 16 - アウトライン" d="M2.19,1A1.19,1.19,0,1,0,3.38,2.19,1.191,1.191,0,0,0,2.19,1m0-1A2.19,2.19,0,1,1,0,2.19,2.19,2.19,0,0,1,2.19,0Z" transform="translate(20.207 10.382) rotate(-120)" fill="#4f636e"/>
</svg>
