<svg id="insta" xmlns="http://www.w3.org/2000/svg" width="24" height="24" viewBox="0 0 24 24">
  <path id="パス_69" data-name="パス 69" d="M12,2.153c3.2,0,3.583.012,4.849.07a6.642,6.642,0,0,1,2.228.413,3.723,3.723,0,0,1,1.38.9,3.711,3.711,0,0,1,.9,1.38,6.642,6.642,0,0,1,.413,2.228c.058,1.265.07,1.645.07,4.849s-.012,3.583-.07,4.849a6.642,6.642,0,0,1-.413,2.228,3.971,3.971,0,0,1-2.277,2.277,6.642,6.642,0,0,1-2.228.413c-1.265.058-1.645.07-4.849.07s-3.584-.012-4.849-.07a6.642,6.642,0,0,1-2.228-.413,3.723,3.723,0,0,1-1.38-.9,3.711,3.711,0,0,1-.9-1.38,6.642,6.642,0,0,1-.413-2.228c-.058-1.265-.07-1.645-.07-4.849s.012-3.583.07-4.849a6.642,6.642,0,0,1,.413-2.228,3.723,3.723,0,0,1,.9-1.38,3.707,3.707,0,0,1,1.38-.9,6.642,6.642,0,0,1,2.228-.413C8.416,2.165,8.8,2.153,12,2.153M12-.01C8.741-.01,8.332,0,7.052.063A8.8,8.8,0,0,0,4.139.621,5.877,5.877,0,0,0,2.014,2,5.881,5.881,0,0,0,.63,4.13,8.81,8.81,0,0,0,.072,7.042C.014,8.322,0,8.731,0,11.99s.014,3.668.072,4.948A8.8,8.8,0,0,0,.63,19.85a5.877,5.877,0,0,0,1.384,2.125A5.881,5.881,0,0,0,4.14,23.36a8.8,8.8,0,0,0,2.913.558c1.28.059,1.689.072,4.948.072s3.668-.014,4.948-.072a8.8,8.8,0,0,0,2.913-.558,6.138,6.138,0,0,0,3.51-3.51,8.8,8.8,0,0,0,.558-2.913c.059-1.28.072-1.689.072-4.948s-.014-3.668-.072-4.948A8.8,8.8,0,0,0,23.37,4.13,5.877,5.877,0,0,0,21.986,2,5.881,5.881,0,0,0,19.86.62,8.8,8.8,0,0,0,16.948.062C15.668,0,15.259-.01,12-.01h0Z" transform="translate(0 0.01)" fill="#31393a"/>
  <path id="パス_70" data-name="パス 70" d="M128.722,122.56a6.162,6.162,0,1,0,6.162,6.162A6.162,6.162,0,0,0,128.722,122.56Zm0,10.162a4,4,0,1,1,4-4A4,4,0,0,1,128.722,132.722Z" transform="translate(-116.722 -116.722)" fill="#31393a"/>
  <circle id="楕円形_1" data-name="楕円形 1" cx="1.44" cy="1.44" r="1.44" transform="translate(16.965 4.154)" fill="#31393a"/>
</svg>
