<svg xmlns="http://www.w3.org/2000/svg" xmlns:xlink="http://www.w3.org/1999/xlink" width="349" height="108.394" viewBox="0 0 349 108.394">
  <defs>
    <clipPath id="clip-path">
      <rect id="長方形_593" data-name="長方形 593" width="77.439" height="72.521" fill="none"/>
    </clipPath>
  </defs>
  <g id="logo" transform="translate(-735.464 -222.011)">
    <g id="ほっかいどう" transform="translate(874.298 222.011)">
      <g id="ほっかいどう-2" data-name="ほっかいどう" transform="translate(0 0)" clip-path="url(#clip-path)">
        <path id="パス_2917" data-name="パス 2917" d="M49.048,21.649c.161.123.284.284.444.33.874.268,1.747.544,2.636.736.414.092.7-.238.774-.72s.5-.59,1.027-.5c.345.061.483.3.406.728-.054.291-.1.613.207.743a.75.75,0,0,0,.92-.13c.276-.3.521-.552.766-.812a2.026,2.026,0,0,1,.8,1.226.615.615,0,0,0,.5.467c.736.192,1.471.414,2.207.613a5.012,5.012,0,0,0,2.383,0,1.818,1.818,0,0,1,.567-.084,2.03,2.03,0,0,0,1.625-.682,17.356,17.356,0,0,0,2.812-3.571,3.272,3.272,0,0,1,.383-.529,13.577,13.577,0,0,0,1.87-3.058c.13-.238.253-.475.575-.391s.314.33.314.582a6.37,6.37,0,0,1-.383,2.935c-.2.406-.5.766-.72,1.157a4.8,4.8,0,0,0-.314.782,6.919,6.919,0,0,1-.345,1.065,5.77,5.77,0,0,0-.782,3.816,2.253,2.253,0,0,0,1.042,1.318c.444.345.858.5,1.257.789.161.115.337.391.3.536s-.33.238-.582.4c.084.2.192.506.33.8.368.8.766,1.586,1.127,2.383a2.663,2.663,0,0,0,1.3,1.272,1.337,1.337,0,0,0,1.992-.36,8.134,8.134,0,0,1,1.326-1.027,2.575,2.575,0,0,0,.559-.7c.2-.353.46-.536.713-.421a.739.739,0,0,1,.245.935,2.846,2.846,0,0,1-.437.475c-.506.5-1.027.989-1.525,1.5a1.4,1.4,0,0,0-.353,1.1c.038.674-.268.9-.927.728l-.33-.1a1.373,1.373,0,0,0-1.349.146,1.586,1.586,0,0,1-1.617.207c-.238-.115-.575.23-.475.544a.829.829,0,0,1-.529,1.134,1.1,1.1,0,0,0-.552,1.15.8.8,0,1,1-1.6-.123c0-.192-.054-.513-.169-.559a1.8,1.8,0,0,0-.72.023c-.23.054-.253.176-.345.291a.666.666,0,0,1-.736.276c-.307-.077-.559.215-.728.444-.077.107-.015.383.069.544.36.682.192,1-.59,1-.383.008-.759-.069-1.142-.061a2.69,2.69,0,0,0-.858.115,2.238,2.238,0,0,1-1.6,0,11.985,11.985,0,0,0-1.77-.483.858.858,0,0,0-.6.161,11.6,11.6,0,0,0-1.05.828,4.485,4.485,0,0,1-1.8.973,1.9,1.9,0,0,0-1.264.981,5.869,5.869,0,0,1-1.586,1.694,24.216,24.216,0,0,0-3.494,3.311,9.288,9.288,0,0,0-1.809,3.64,6.976,6.976,0,0,0,.038,3.824,3.857,3.857,0,0,1-.222,2.652,1.908,1.908,0,0,0-.169,1.073.753.753,0,0,1-.238.582c-.146.123-.444.015-.582-.192a8.249,8.249,0,0,0-1.64-1.586,6.714,6.714,0,0,0-2.192-1.188,4.7,4.7,0,0,0-1.234-.207,6.286,6.286,0,0,1-4.184-1.816,2.858,2.858,0,0,0-1.287-.751,6.812,6.812,0,0,1-1.517-.682,10.355,10.355,0,0,1-1.77-1.188,2.643,2.643,0,0,0-2.23-.705,1.911,1.911,0,0,1-1.425-.567,5.963,5.963,0,0,0-2.9-1.28,5.46,5.46,0,0,0-.866.008A6.177,6.177,0,0,1,23.9,50.2a.957.957,0,0,0-.866.146c-.8.628-1.6,1.257-2.391,1.908-1.165.958-2.314,1.931-3.464,2.9a2.07,2.07,0,0,0-.322.376.676.676,0,0,1-1.257-.107,8.944,8.944,0,0,0-2.636-2.927,5.673,5.673,0,0,1-.437-.421.823.823,0,0,0-1.157-.238,1.985,1.985,0,0,1-1.326.207A2.952,2.952,0,0,0,7.359,53.2a1.155,1.155,0,0,0-.222.636,2.483,2.483,0,0,1-.651,1.4.56.56,0,0,0-.107.621,3.908,3.908,0,0,1,.138,1.127A1.02,1.02,0,0,0,7.16,58.05a4.307,4.307,0,0,1,1.77,1.395c.383.513.973.429,1.517.437s.889-.023,1.333-.054a1.732,1.732,0,0,0,.483-.084c.529-.192.774-.138,1.073.33a7.61,7.61,0,0,0,2.927,2.636,7.732,7.732,0,0,0,.751.215,1.678,1.678,0,0,1,.529.3c.337.307.628.659.973.958a1.241,1.241,0,0,1,.444,1.088c-.015.176-.253.337-.414.49a4.84,4.84,0,0,0-.621.536.983.983,0,0,1-1.648-.161,1.106,1.106,0,0,0-1.364-.636,6.652,6.652,0,0,0-.766.23.778.778,0,0,1-.9-.215c-.261-.261-.391-.368-.582-.552s-.337-.138-.452.046a8.043,8.043,0,0,0-.559.9A1.848,1.848,0,0,1,9.9,67.062a1.61,1.61,0,0,0-.376.046c-.238.077-.337.222-.2.467a2.33,2.33,0,0,1,.031,2.1c-.115.284-.238.567-.353.851a.775.775,0,0,1-.736.513.688.688,0,0,0-.7.421l-.307.613c-.192.391-.467.513-.843.3a1.555,1.555,0,0,0-1.1-.146c-.567.092-.782-.054-.981-.6a1.134,1.134,0,0,0-.291-.437,1.274,1.274,0,0,1-.337-1.4,5.065,5.065,0,0,1,.215-.575,1.7,1.7,0,0,0,.13-1.15,1.315,1.315,0,0,1,.23-1.081c.391-.682.682-1.418,1.012-2.138.13-.291.238-.59.383-.881a.522.522,0,0,0-.2-.751,1.923,1.923,0,0,1-.927-1.234,1.363,1.363,0,0,0-1.379-1.019,1.13,1.13,0,0,1-1.165-.743A2.256,2.256,0,0,0,.9,59.1a1.77,1.77,0,0,1-.935-1.379,2.206,2.206,0,0,1,.153-.713c.015-.054.077-.1.115-.153.789-1.012.789-1.3.1-2.391a1.671,1.671,0,0,1-.207-.82,8.621,8.621,0,0,1,.084-1.3,1.471,1.471,0,0,1,.858-1.2c.23-.115.444-.253.682-.353a6.928,6.928,0,0,0,2.713-2.13c.353-.46.636-.437.935.046.207.337.46.008.69.054.061.008.238-.184.222-.261a2.374,2.374,0,0,1,1.142-2.23c.215-.184.444-.345.644-.544.4-.406.605-.812.161-1.326s-.889-1.18-1.333-1.778a1.186,1.186,0,0,1-.192-1.119,1.413,1.413,0,0,0-.054-.774,1.31,1.31,0,0,1,.467-1.625,1.426,1.426,0,0,0,.337-.452.627.627,0,0,1,.858-.353,13.028,13.028,0,0,1,1.3.452,2.636,2.636,0,0,1,.682.475c.651.59,1.28,1.2,1.939,1.786.291.261.536.222.72-.115a1.435,1.435,0,0,1,1.3-.789A1.464,1.464,0,0,0,14.693,40a.577.577,0,0,1,.851.376,1.618,1.618,0,0,0,2.383.973,4.226,4.226,0,0,0,2.291-2.046,2.118,2.118,0,0,0,.1-1.671c-.176-.552-.452-1.081-.628-1.64a2.276,2.276,0,0,1-.069-.958,2.685,2.685,0,0,0-.184-1.678,3.418,3.418,0,0,1,.1-3.1,1.77,1.77,0,0,1,.9-.881,7.794,7.794,0,0,0,1.065-.59,2.751,2.751,0,0,0,1.249-2.33,12.455,12.455,0,0,0-.6-3.265c-.123-.521-.238-1.042-.353-1.563a2.171,2.171,0,0,1,.245-1.4,38.966,38.966,0,0,0,1.533-3.663,6.351,6.351,0,0,0-.376-4.8c-.636-1.349-1.31-2.682-1.985-4.016a11.051,11.051,0,0,0-.674-1.111.762.762,0,0,1-.092-.828A4.343,4.343,0,0,0,20.716,3.3c-.054-.521-.115-1.042-.146-1.563s.261-.628.667-.506l.107.038c1.073.414,1.586.3,2.452-.843.046-.061.077-.13.13-.192a.568.568,0,0,1,.92-.069c.314.291.644.544.943.835s.713.72,1.065,1.088c1.1,1.134,2.2,2.268,3.288,3.418Q31.2,6.614,32.219,7.748a1.18,1.18,0,0,1,.314.552,1.648,1.648,0,0,0,.559,1.012c1.019.966,2.054,1.916,3.058,2.889s1.977,1.992,2.989,2.966a14.515,14.515,0,0,0,4.882,3.41,24.337,24.337,0,0,1,2.291,1.211c.529.268,1.081.506,1.632.743.353.153.713.276,1.073.4s.421.245.146.506a1.134,1.134,0,0,0-.123.215" transform="translate(0.036 0.038)" fill="#edf3f5"/>
      </g>
    </g>
    <path id="パス_2919" data-name="パス 2919" d="M54.991-16.831c-2.438,0-5.864,1.318-9.619,2.108-3.228.725-6.127,1.318-8.763,1.911C35.423-18.017,34.5-21.97,33.842-25.4c1.713-.4,3.624-.791,5.732-1.252a25.558,25.558,0,0,1,4.414-.4,35.767,35.767,0,0,1,4.941.4,3.856,3.856,0,0,0,.857.132c1.45,0,2.306-.725,2.306-1.647,0-.857-.791-1.845-2.7-2.5a8.032,8.032,0,0,0-2.7-.461,23.145,23.145,0,0,0-5.732,1.186c-2.9.725-5.4,1.318-7.643,1.911-.329-1.449-.593-2.9-.857-4.283-1.384-7.379-1.647-9.751-6.062-10.476a4.053,4.053,0,0,0-.857-.066c-1.384,0-2.24.659-2.24,1.45,0,.659.593,1.45,1.779,1.977,2.438,1.186,3.36,3.163,5.139,12.123C22.18-25.331,18.425-24.54,15.789-24.54a12.1,12.1,0,0,1-3.492-.527,2.241,2.241,0,0,0-.659-.066,1.147,1.147,0,0,0-1.252,1.12c0,.593.461,1.318,1.515,1.911a5.776,5.776,0,0,0,3.031.791c2.7,0,6.786-1.318,15.813-3.36.659,3.294,1.45,7.445,2.372,12.584-10.41,2.306-14.89,3.294-17.592,3.294a6.388,6.388,0,0,1-3.492-.857,3.843,3.843,0,0,0-1.318-.329c-.725,0-1.252.4-1.252,1.054a2.957,2.957,0,0,0,1.054,1.911A5.62,5.62,0,0,0,14.933-5.3c3.228,0,8.5-1.449,18.712-4.019C34.5-4.774,35.555.5,36.741,6.558c.527,2.9,1.911,4.283,2.965,4.283.922,0,1.713-1.054,1.713-2.965a9.339,9.339,0,0,0-.329-2.5C39.508-.821,38.256-5.894,37.268-10.177l9.29-2.174a28.044,28.044,0,0,1,6.457-.791c1.384,0,2.767.2,4.217.2,1.318,0,1.911-.527,1.911-1.318,0-.988-1.054-2.174-3.294-2.57Zm67.665-15.681c0-1.581-.922-2.5-2.9-2.5a8.4,8.4,0,0,0-1.252.066,92.426,92.426,0,0,1-14.429,1.318c.132-.329.329-.725.461-1.12a9.514,9.514,0,0,0,.922-3.492c0-1.779-1.054-3.36-4.283-4.546a4.164,4.164,0,0,0-1.384-.329c-.725,0-1.252.329-1.252.922a3.758,3.758,0,0,0,1.45,2.24,3.632,3.632,0,0,1,.988,2.635,8.723,8.723,0,0,1-.857,3.36,44.84,44.84,0,0,1-16.6,20.293c-.659.461-.922.922-.922,1.252a.532.532,0,0,0,.593.461,1.718,1.718,0,0,0,.725-.2c9.29-5.007,14.363-9.422,18.843-18.712,3.756-.2,8.236-.461,13.177-.988a.746.746,0,0,1,.922.791l-.066.461a70.005,70.005,0,0,1-5.4,13.968,43.488,43.488,0,0,0-7.709-4.151,2.275,2.275,0,0,0-.857-.2c-.461,0-.725.2-.725.461,0,.4.329.857,1.054,1.252a19.957,19.957,0,0,1,6.391,5.666C103.945-4.84,95.446,2.078,81.28,8.93c-.725.329-1.12.791-1.12,1.12,0,.264.264.461.659.461a2.58,2.58,0,0,0,.857-.2c13.9-5.139,22.665-11.267,29.781-20.82.4.791.791,1.581,1.12,2.438.988,2.306,2.7,3.36,4.085,3.36a2.286,2.286,0,0,0,2.306-2.438,6.174,6.174,0,0,0-.922-2.767,19.282,19.282,0,0,0-3.887-4.546A120.419,120.419,0,0,0,121.6-28.823,9.638,9.638,0,0,0,122.657-32.512Z" transform="translate(726 274.389)" fill="#edf3f5"/>
    <path id="パス_2920" data-name="パス 2920" d="M50.3-5.377a9.4,9.4,0,0,0-1.779-.593c1.318-7.511,2.57-14.363,3.36-18.119a13.7,13.7,0,0,0,.329-2.57c0-1.713-.791-2.57-3.163-2.57a12.715,12.715,0,0,0-1.515.066C36.4-27.976,29.352-27.12,24.476-27.12c-3.887,0-6.391-.527-8.368-1.911a3.485,3.485,0,0,0-1.977-.725,1.2,1.2,0,0,0-1.252,1.318A4.967,4.967,0,0,0,14.2-25.472C15.45-24.023,16.24-23.5,18.876-23.5c3.624,0,10.805-.988,27.738-1.779.593,0,.988.2.988.922a.836.836,0,0,1-.066.4c-.725,6.391-.988,10.871-2.042,17.658-1.252.066-2.438.264-3.624.4-9.224.659-14.429,1.12-17.921,1.12A15.371,15.371,0,0,1,16.438-6.3a4,4,0,0,0-1.45-.4c-.791,0-1.252.4-1.252,1.054a4.325,4.325,0,0,0,1.581,2.767A6.477,6.477,0,0,0,20.457-.9c3.36,0,9.158-1.054,22.072-1.647a5.667,5.667,0,0,1,1.054-.066,15.624,15.624,0,0,1,6,1.12,3.655,3.655,0,0,0,1.12.2,1.609,1.609,0,0,0,1.713-1.647C52.412-3.73,51.819-4.718,50.3-5.377Zm66.743-36.5a5.916,5.916,0,0,0-3.163-1.186c-.857,0-1.515.461-1.515,1.252a2.275,2.275,0,0,0,.2.857,4.837,4.837,0,0,1,.4,1.713c0,1.186-.725,2.042-1.713,3.163C101.168-24.813,93.591-18.488,77.119-8.737c-.659.4-.988.857-.988,1.12s.2.461.593.461a2.275,2.275,0,0,0,.857-.2c11.135-5.139,18.053-9.092,26.75-16.208,1.186.461,2.438,1.581,2.5,6.193v1.45c0,6.457-.4,18.448-.725,23.587-.132,2.767,1.054,4.151,2.24,4.151,1.252,0,2.5-1.384,2.372-4.217-.2-4.085-.527-8.7-.527-14.166a121.864,121.864,0,0,1,.593-12.387,11.663,11.663,0,0,0,.066-1.515c0-2.372-.857-4.283-4.48-4.876,3.1-2.635,6.457-5.666,10.278-9.29,1.252-1.186,2.372-2.635,2.372-4.151A3.9,3.9,0,0,0,117.046-41.878Z" transform="translate(965.441 274.399)" fill="#edf3f5"/>
    <path id="パス_2918" data-name="パス 2918" d="M10.6-5.224v-5.612c.512-.176.777-.335.777-.494,0-.265-.618-.424-1.835-.477V1.535a1.473,1.473,0,0,0,.318,1.094c.282.247,1.288.371,3.035.371a12.567,12.567,0,0,0,3.088-.212.98.98,0,0,0,.547-.988.539.539,0,0,1-.512-.282A5.7,5.7,0,0,1,15.77-.777v-.759l-.476-.194-.035.424a20.222,20.222,0,0,1-.318,2.488c-.088.406-.247.671-.494.759a7.705,7.705,0,0,1-1.924.124A6.82,6.82,0,0,1,10.9,1.959a.615.615,0,0,1-.3-.618V-4.606a21.042,21.042,0,0,0,4.183-2.612,2.665,2.665,0,0,0,.6.106c.194,0,.3-.053.3-.176q0-.4-1.218-1.324a17.413,17.413,0,0,1-3.741,3.3ZM5.693-7.306H1.3l.229.441H5.693v4.447A30.577,30.577,0,0,1,.84-.441c.406,1.024.724,1.535.971,1.535.159,0,.265-.265.3-.777A34.718,34.718,0,0,0,5.693-1.8V3.459H6.77V-10.836c.494-.194.741-.353.741-.512,0-.282-.6-.424-1.818-.441ZM28.971-9.812c-3.636,0-7.624,2.541-7.624,6.953,0,2.135,1.024,3.283,2.259,3.283,1.888,0,4.271-2.612,4.271-8.383,0-.353-.018-.688-.035-1.059.265-.018.512-.035.759-.035a4.843,4.843,0,0,1,5.171,5.065c0,3.988-3.9,5.383-7.2,5.418-.194.018-.3.106-.3.194s.088.176.3.212a12.9,12.9,0,0,0,1.412.088c3.847,0,6.918-2.118,6.918-5.965C34.9-8.012,32.042-9.812,28.971-9.812ZM27.189-8.595c0,5.171-2.135,7.536-3.583,7.536-.777,0-1.288-.635-1.288-1.924a5.925,5.925,0,0,1,4.871-5.912Zm17.7-1.041v.388A6.568,6.568,0,0,1,40.884-3l.265.371q4.791-1.8,4.783-6.618v-.388h2.03v4.253c0,.353-.212.529-.618.529a15.872,15.872,0,0,1-1.73-.106v.441A4.608,4.608,0,0,1,46.9-4.2a.7.7,0,0,1,.477.724c1.059.018,1.588-.406,1.588-1.288V-9.636h5.1l.194-.335-.159-.176a7.254,7.254,0,0,0-1.041-1.041L52.2-10.077H47.219V-11.56c.476-.159.706-.318.706-.476,0-.265-.565-.388-1.712-.406v2.365h-6.9l.176.441Zm-5.4,5.7a9.707,9.707,0,0,0,3.3-3.53c.512-.018.777-.106.777-.282,0-.265-.494-.582-1.465-.918a11.62,11.62,0,0,1-2.912,4.412ZM49.814-8.295a9.58,9.58,0,0,1,2.753,3.371c.194.441.406.653.653.653.406,0,.6-.212.6-.635a2.755,2.755,0,0,0-.882-1.571A11.423,11.423,0,0,0,50.078-8.63ZM45.807-2.841A6.307,6.307,0,0,1,47.7-.477c.159.371.353.565.565.565.406,0,.6-.212.6-.635,0-.829-.935-1.712-2.806-2.612Zm5.065.671A8.745,8.745,0,0,1,53.29,1.023c.159.441.371.671.635.671.406,0,.618-.229.618-.706,0-1.077-1.147-2.241-3.424-3.459Zm-.141,1.8L50.29-.53a9.918,9.918,0,0,1-.3,1.765.878.878,0,0,1-.741.688,17.368,17.368,0,0,1-2.1.088,18.128,18.128,0,0,1-2.241-.088.511.511,0,0,1-.424-.582V-1.43q.741-.238.741-.476,0-.4-1.747-.476V1.694A1.166,1.166,0,0,0,43.831,2.7a7.644,7.644,0,0,0,2.912.282,23.377,23.377,0,0,0,4.006-.176.975.975,0,0,0,.741-.971.606.606,0,0,1-.547-.247A3.354,3.354,0,0,1,50.731,0ZM41.413-2.047a4.15,4.15,0,0,1-2.047,3.177.608.608,0,0,0-.388.547.585.585,0,0,0,.653.671,1.607,1.607,0,0,0,1.182-.759,5.7,5.7,0,0,0,1.059-3.477ZM72.191.353a5.729,5.729,0,0,0-2.365-1.447c-.053-1.006-.071-1.888-.071-2.7q0-1.377.053-2.382a4.229,4.229,0,0,0,1.218-.459c.635-.353.935-.724.935-1.024,0-.247-.247-.459-.706-.547A3.524,3.524,0,0,1,70-8.665c.035-.424.053-.759.053-1.041a1.652,1.652,0,0,0-1.024-1.677,1.141,1.141,0,0,0-.547-.194c-.212,0-.335.106-.335.3a1.323,1.323,0,0,0,.282.671,10.013,10.013,0,0,1,.459,3.565h-.282a5.4,5.4,0,0,1-2.753-.794.7.7,0,0,0-.353-.124.206.206,0,0,0-.229.194.575.575,0,0,0,.229.388,4.79,4.79,0,0,0,3.283,1.306h.124c.018.459.018.935.018,1.394,0,1.253-.018,2.435-.053,3.318a8.214,8.214,0,0,0-1.712-.194c-1.606,0-2.912.565-2.912,1.924,0,1.288,1.253,1.924,2.577,1.924,1.465,0,3-.759,3.035-2.277a4.787,4.787,0,0,1,1.447,1.2c.353.441.671.635.918.635s.406-.212.406-.512A1.554,1.554,0,0,0,72.191.353Zm-9.583-6.23c-.088,0-.194.071-.3.247a12.369,12.369,0,0,0-1.5,3.318c-.088.335-.229.459-.318.459-.106,0-.194-.124-.194-.353,0-.053.018-.124.018-.212.265-1.377,1.2-4.288,1.2-6.106a2.236,2.236,0,0,0-.3-1.306,1.223,1.223,0,0,0-.865-.565.326.326,0,0,0-.335.371,1.554,1.554,0,0,0,.318.777,1.879,1.879,0,0,1,.247,1.129,32.678,32.678,0,0,1-.971,5.665,5.865,5.865,0,0,0-.141,1.218,6.357,6.357,0,0,0,.494,2.418c.265.671.635.988.953.988.282,0,.494-.282.494-.794a3.013,3.013,0,0,0-.124-.794A2.751,2.751,0,0,1,61.2-.124a17.456,17.456,0,0,1,1.482-5.33A.59.59,0,0,0,62.75-5.7C62.75-5.806,62.7-5.877,62.608-5.877ZM69.95-8.242a5.544,5.544,0,0,0,.582.424c.088.071.141.141.141.194s-.035.088-.106.141a3.981,3.981,0,0,1-.688.265C69.9-7.606,69.932-7.942,69.95-8.242ZM68.856-.388c-.018,1.235-1.271,1.818-2.347,1.818-.829,0-1.571-.335-1.571-.971,0-.829.865-1.235,1.977-1.235a6.034,6.034,0,0,1,1.941.353Zm11.63,3.936a.707.707,0,0,0,.724-.794,1.943,1.943,0,0,0-.424-1.182A6.78,6.78,0,0,0,77.2-.777c-.159-.053-.265-.018-.318.071q-.106.159.106.318a8.108,8.108,0,0,1,2.647,3.194C79.886,3.335,80.115,3.547,80.486,3.547ZM104.434-7.589l.088.176A20.044,20.044,0,0,0,111.264.459a4.084,4.084,0,0,1,.9-1.024,19.314,19.314,0,0,1-7.395-7.395h6.495l.212-.371a12.094,12.094,0,0,0-1.218-1.394L109.252-8.4h-4.818v-2.683c.512-.194.759-.371.759-.529,0-.265-.618-.424-1.835-.476V-8.4H96.51l.159.441h6A20.49,20.49,0,0,1,95.928.812l.3.353a19.1,19.1,0,0,0,7.13-7.995V-.724h-3.336l.159.441h3.177V3.477h1.077V-.282h3.494l.212-.371a11.486,11.486,0,0,0-1.182-1.253L106.04-.724h-1.606Zm24.954-1.977L129.6-9.9a11.172,11.172,0,0,0-1.2-1.253l-.882,1.147h-7.853c.3-.582.512-1.041.671-1.412.565-.088.847-.194.847-.353,0-.247-.547-.494-1.641-.724a17.877,17.877,0,0,1-4.183,6.953l.318.335a14.67,14.67,0,0,0,3.741-4.359Zm-2.824,1.73h-7.5l.194.441h9.071l.212-.335a13.661,13.661,0,0,0-1.129-1.112Zm-.371,2.277h-9.265l.176.441h9.265a11.706,11.706,0,0,0,1.977,7.042c.653.865,1.271,1.306,1.835,1.306q.662,0,.794-.794c-.371-.159-.547-.635-.547-1.429q0-.768.159-2.7l-.459-.229q-.344,3.283-.741,3.283c-.088,0-.247-.194-.512-.6a10.117,10.117,0,0,1-1.482-5.577l.406-.247c.124-.088.194-.176.194-.247,0-.176-.353-.529-1.077-1.077Zm-4.641,4.006a37.919,37.919,0,0,0-3.883-2.082l-.247.371a30.468,30.468,0,0,1,3.53,2.33,16.944,16.944,0,0,1-5.118,3.653l.265.371a17.36,17.36,0,0,0,5.612-3.406,17.752,17.752,0,0,1,2.4,2.312.636.636,0,0,0,.494.282c.335,0,.494-.176.494-.547q0-.821-2.753-2.753c.653-.724,1.235-1.412,1.73-2.065.547,0,.829-.071.829-.229,0-.212-.459-.547-1.394-.988A15.508,15.508,0,0,1,121.553-1.553Zm21.778-8.259c-3.636,0-7.624,2.541-7.624,6.953,0,2.135,1.024,3.283,2.259,3.283,1.888,0,4.271-2.612,4.271-8.383,0-.353-.018-.688-.035-1.059.265-.018.512-.035.759-.035a4.843,4.843,0,0,1,5.171,5.065c0,3.988-3.9,5.383-7.2,5.418-.194.018-.3.106-.3.194s.088.176.3.212a12.9,12.9,0,0,0,1.412.088c3.847,0,6.918-2.118,6.918-5.965C149.261-8.012,146.4-9.812,143.331-9.812Zm-1.782,1.218c0,5.171-2.135,7.536-3.583,7.536-.777,0-1.288-.635-1.288-1.924a5.925,5.925,0,0,1,4.871-5.912Zm17.7-1.041v.388A6.568,6.568,0,0,1,155.243-3l.265.371q4.791-1.8,4.783-6.618v-.388h2.03v4.253c0,.353-.212.529-.618.529a15.872,15.872,0,0,1-1.73-.106v.441a4.608,4.608,0,0,1,1.288.318.7.7,0,0,1,.477.724c1.059.018,1.588-.406,1.588-1.288V-9.636h5.1l.194-.335-.159-.176a7.253,7.253,0,0,0-1.041-1.041l-.865,1.112h-4.977V-11.56c.477-.159.706-.318.706-.476,0-.265-.565-.388-1.712-.406v2.365h-6.9l.176.441Zm-5.4,5.7a9.708,9.708,0,0,0,3.3-3.53c.512-.018.777-.106.777-.282,0-.265-.494-.582-1.465-.918a11.621,11.621,0,0,1-2.912,4.412Zm10.324-4.359a9.58,9.58,0,0,1,2.753,3.371c.194.441.406.653.653.653.406,0,.6-.212.6-.635a2.755,2.755,0,0,0-.882-1.571,11.423,11.423,0,0,0-2.859-2.153Zm-4.006,5.453a6.307,6.307,0,0,1,1.888,2.365c.159.371.353.565.565.565.406,0,.6-.212.6-.635,0-.829-.935-1.712-2.806-2.612Zm5.065.671a8.746,8.746,0,0,1,2.418,3.194c.159.441.371.671.635.671.406,0,.618-.229.618-.706,0-1.077-1.147-2.241-3.424-3.459Zm-.141,1.8L164.65-.53a9.917,9.917,0,0,1-.3,1.765.878.878,0,0,1-.741.688,17.369,17.369,0,0,1-2.1.088,18.127,18.127,0,0,1-2.241-.088.511.511,0,0,1-.424-.582V-1.43q.741-.238.741-.476,0-.4-1.747-.476V1.694a1.166,1.166,0,0,0,.353,1.006,7.644,7.644,0,0,0,2.912.282,23.377,23.377,0,0,0,4.006-.176.975.975,0,0,0,.741-.971.606.606,0,0,1-.547-.247A3.354,3.354,0,0,1,165.091,0Zm-9.318-1.677a4.15,4.15,0,0,1-2.047,3.177.608.608,0,0,0-.388.547.585.585,0,0,0,.653.671,1.607,1.607,0,0,0,1.182-.759,5.7,5.7,0,0,0,1.059-3.477Z" transform="translate(822.13 326.857)" fill="#edf3f5"/>
  </g>
</svg>
