<svg xmlns="http://www.w3.org/2000/svg" xmlns:xlink="http://www.w3.org/1999/xlink" width="240" height="74.54" viewBox="0 0 240 74.54">
  <defs>
    <clipPath id="clip-path">
      <rect id="長方形_593" data-name="長方形 593" width="53.253" height="49.871" fill="none"/>
    </clipPath>
  </defs>
  <g id="logo" transform="translate(-735.464 -222.011)">
    <g id="ほっかいどう" transform="translate(830.937 222.011)">
      <g id="ほっかいどう-2" data-name="ほっかいどう" transform="translate(0 0)" clip-path="url(#clip-path)">
        <path id="パス_2917" data-name="パス 2917" d="M33.717,14.875c.111.084.195.195.306.227.6.184,1.2.374,1.813.506.285.063.48-.163.532-.5s.343-.406.706-.343c.237.042.332.206.279.5-.037.2-.069.422.142.511a.516.516,0,0,0,.632-.09c.19-.206.358-.379.527-.559a1.393,1.393,0,0,1,.553.843.423.423,0,0,0,.343.321c.506.132,1.012.285,1.518.422a3.447,3.447,0,0,0,1.639,0,1.25,1.25,0,0,1,.39-.058,1.4,1.4,0,0,0,1.117-.469,11.935,11.935,0,0,0,1.934-2.456,2.25,2.25,0,0,1,.263-.364,9.337,9.337,0,0,0,1.286-2.1c.09-.163.174-.327.4-.269s.216.227.216.4a4.38,4.38,0,0,1-.264,2.018c-.137.279-.343.527-.5.8a3.3,3.3,0,0,0-.216.538,4.758,4.758,0,0,1-.237.733,3.968,3.968,0,0,0-.538,2.624,1.549,1.549,0,0,0,.717.906c.306.237.59.343.864.543.111.079.232.269.206.369s-.227.163-.4.274c.058.137.132.348.227.553.253.548.527,1.091.775,1.639a1.831,1.831,0,0,0,.9.875.92.92,0,0,0,1.37-.248,5.593,5.593,0,0,1,.912-.706,1.771,1.771,0,0,0,.385-.48c.137-.242.316-.369.49-.29a.508.508,0,0,1,.169.643,1.957,1.957,0,0,1-.3.327c-.348.343-.706.68-1.049,1.033a.965.965,0,0,0-.242.754c.026.464-.184.622-.638.5l-.227-.069a.944.944,0,0,0-.928.1,1.091,1.091,0,0,1-1.112.142c-.163-.079-.4.158-.327.374a.57.57,0,0,1-.364.78.753.753,0,0,0-.379.79.552.552,0,1,1-1.1-.084c0-.132-.037-.353-.116-.385a1.236,1.236,0,0,0-.5.016c-.158.037-.174.121-.237.2a.458.458,0,0,1-.506.19c-.211-.053-.385.148-.5.306-.053.074-.011.264.047.374.248.469.132.685-.406.69-.263.005-.522-.047-.785-.042a1.85,1.85,0,0,0-.59.079,1.539,1.539,0,0,1-1.1,0,8.242,8.242,0,0,0-1.217-.332.59.59,0,0,0-.411.111,7.975,7.975,0,0,0-.722.569,3.084,3.084,0,0,1-1.238.669,1.307,1.307,0,0,0-.87.675,4.036,4.036,0,0,1-1.091,1.165,16.653,16.653,0,0,0-2.4,2.277,6.387,6.387,0,0,0-1.244,2.5,4.8,4.8,0,0,0,.026,2.63,2.652,2.652,0,0,1-.153,1.823,1.312,1.312,0,0,0-.116.738.518.518,0,0,1-.163.4c-.1.084-.306.011-.4-.132a5.673,5.673,0,0,0-1.128-1.091,4.617,4.617,0,0,0-1.507-.817,3.231,3.231,0,0,0-.848-.142,4.323,4.323,0,0,1-2.877-1.249,1.966,1.966,0,0,0-.885-.516,4.685,4.685,0,0,1-1.043-.469A7.121,7.121,0,0,1,22.3,36.26a1.818,1.818,0,0,0-1.534-.485,1.314,1.314,0,0,1-.98-.39,4.1,4.1,0,0,0-2-.88,3.756,3.756,0,0,0-.6.005,4.248,4.248,0,0,1-.775-.005.658.658,0,0,0-.6.1c-.553.432-1.1.864-1.644,1.312-.8.659-1.592,1.328-2.382,1.992a1.423,1.423,0,0,0-.221.258.465.465,0,0,1-.864-.074A6.151,6.151,0,0,0,8.9,36.081a3.9,3.9,0,0,1-.3-.29.566.566,0,0,0-.8-.163,1.365,1.365,0,0,1-.912.142,2.03,2.03,0,0,0-1.844.8.794.794,0,0,0-.153.437,1.707,1.707,0,0,1-.448.964.385.385,0,0,0-.074.427,2.688,2.688,0,0,1,.095.775.7.7,0,0,0,.443.733,2.962,2.962,0,0,1,1.217.959c.263.353.669.3,1.043.3s.611-.016.917-.037a1.191,1.191,0,0,0,.332-.058c.364-.132.532-.095.738.227a5.233,5.233,0,0,0,2.013,1.813,5.318,5.318,0,0,0,.516.148,1.154,1.154,0,0,1,.364.206c.232.211.432.453.669.659a.854.854,0,0,1,.306.748c-.011.121-.174.232-.285.337a3.328,3.328,0,0,0-.427.369.676.676,0,0,1-1.133-.111.761.761,0,0,0-.938-.437,4.575,4.575,0,0,0-.527.158A.535.535,0,0,1,9.1,45.04c-.179-.179-.269-.253-.4-.379s-.232-.095-.311.032A5.531,5.531,0,0,0,8,45.314a1.271,1.271,0,0,1-1.2.79,1.107,1.107,0,0,0-.258.032c-.163.053-.232.153-.137.321A1.6,1.6,0,0,1,6.424,47.9c-.079.195-.163.39-.242.585a.533.533,0,0,1-.506.353.473.473,0,0,0-.48.29l-.211.422c-.132.269-.321.353-.58.206a1.07,1.07,0,0,0-.759-.1c-.39.063-.538-.037-.675-.411a.78.78,0,0,0-.2-.3.876.876,0,0,1-.232-.964,3.483,3.483,0,0,1,.148-.4,1.171,1.171,0,0,0,.09-.79.9.9,0,0,1,.158-.743c.269-.469.469-.975.7-1.47.09-.2.163-.406.263-.606a.359.359,0,0,0-.137-.516,1.323,1.323,0,0,1-.638-.848.937.937,0,0,0-.949-.7.777.777,0,0,1-.8-.511,1.552,1.552,0,0,0-.764-.769,1.217,1.217,0,0,1-.643-.949,1.517,1.517,0,0,1,.105-.49c.011-.037.053-.069.079-.105.543-.7.543-.891.069-1.644a1.149,1.149,0,0,1-.142-.564,5.929,5.929,0,0,1,.058-.891,1.012,1.012,0,0,1,.59-.822c.158-.079.306-.174.469-.242a4.764,4.764,0,0,0,1.866-1.465c.242-.316.437-.3.643.032.142.232.316.005.474.037.042.005.163-.126.153-.179a1.633,1.633,0,0,1,.785-1.534c.148-.126.306-.237.443-.374.274-.279.416-.559.111-.912s-.611-.812-.917-1.223a.815.815,0,0,1-.132-.769A.972.972,0,0,0,4.579,28,.9.9,0,0,1,4.9,26.885a.981.981,0,0,0,.232-.311.431.431,0,0,1,.59-.242,8.96,8.96,0,0,1,.9.311,1.813,1.813,0,0,1,.469.327c.448.406.88.827,1.333,1.228.2.179.369.153.5-.079a.987.987,0,0,1,.9-.543,1.007,1.007,0,0,0,.279-.079.4.4,0,0,1,.585.258,1.113,1.113,0,0,0,1.639.669,2.906,2.906,0,0,0,1.576-1.407,1.457,1.457,0,0,0,.069-1.149c-.121-.379-.311-.743-.432-1.128a1.565,1.565,0,0,1-.047-.659,1.847,1.847,0,0,0-.126-1.154,2.351,2.351,0,0,1,.069-2.129,1.217,1.217,0,0,1,.622-.606,5.36,5.36,0,0,0,.733-.406,1.892,1.892,0,0,0,.859-1.6,8.565,8.565,0,0,0-.411-2.245c-.084-.358-.163-.717-.242-1.075a1.493,1.493,0,0,1,.169-.964A26.8,26.8,0,0,0,16.2,11.381a4.367,4.367,0,0,0-.258-3.3c-.437-.928-.9-1.844-1.365-2.761a7.6,7.6,0,0,0-.464-.764.524.524,0,0,1-.063-.569,2.986,2.986,0,0,0,.179-1.729c-.037-.358-.079-.717-.1-1.075s.179-.432.458-.348l.074.026c.738.285,1.091.206,1.686-.58.032-.042.053-.09.09-.132A.391.391,0,0,1,17.075.1c.216.2.443.374.648.574s.49.5.733.748c.754.78,1.512,1.56,2.261,2.35q.727.764,1.428,1.544a.812.812,0,0,1,.216.379,1.133,1.133,0,0,0,.385.7c.7.664,1.412,1.317,2.1,1.987s1.36,1.37,2.055,2.039a9.982,9.982,0,0,0,3.357,2.345,16.736,16.736,0,0,1,1.576.833c.364.184.743.348,1.123.511.242.105.49.19.738.274s.29.169.1.348a.78.78,0,0,0-.084.148" transform="translate(0.037 0.039)" fill="#31393a"/>
      </g>
    </g>
    <path id="パス_2919" data-name="パス 2919" d="M40.772-25.042c-1.676,0-4.032.906-6.615,1.45-2.22.5-4.214.906-6.026,1.314-.816-3.579-1.45-6.3-1.9-8.654,1.178-.272,2.492-.544,3.942-.861a17.576,17.576,0,0,1,3.036-.272,24.6,24.6,0,0,1,3.4.272,2.652,2.652,0,0,0,.589.091c1,0,1.586-.5,1.586-1.133,0-.589-.544-1.269-1.858-1.722a5.523,5.523,0,0,0-1.858-.317,15.916,15.916,0,0,0-3.942.816c-1.994.5-3.715.906-5.256,1.314-.227-1-.408-1.994-.589-2.945-.951-5.075-1.133-6.706-4.168-7.2a2.787,2.787,0,0,0-.589-.045c-.951,0-1.54.453-1.54,1,0,.453.408,1,1.223,1.359,1.676.816,2.311,2.175,3.534,8.337-5.528,1.359-8.11,1.9-9.923,1.9a8.319,8.319,0,0,1-2.4-.362,1.541,1.541,0,0,0-.453-.045.789.789,0,0,0-.861.77c0,.408.317.906,1.042,1.314a3.972,3.972,0,0,0,2.084.544c1.858,0,4.667-.906,10.874-2.311.453,2.265,1,5.12,1.631,8.654-7.159,1.586-10.24,2.265-12.1,2.265a4.393,4.393,0,0,1-2.4-.589,2.643,2.643,0,0,0-.906-.227c-.5,0-.861.272-.861.725a2.033,2.033,0,0,0,.725,1.314,3.865,3.865,0,0,0,3.036,1.178c2.22,0,5.845-1,12.868-2.764.589,3.126,1.314,6.751,2.13,10.919.362,1.994,1.314,2.945,2.039,2.945.634,0,1.178-.725,1.178-2.039a6.422,6.422,0,0,0-.227-1.722c-1.087-4.259-1.948-7.748-2.628-10.693l6.389-1.5a19.285,19.285,0,0,1,4.44-.544c.951,0,1.9.136,2.9.136.906,0,1.314-.362,1.314-.906,0-.68-.725-1.5-2.265-1.767ZM87.3-35.825c0-1.087-.634-1.722-1.994-1.722a5.777,5.777,0,0,0-.861.045,63.56,63.56,0,0,1-9.923.906c.091-.227.227-.5.317-.77a6.543,6.543,0,0,0,.634-2.4c0-1.223-.725-2.311-2.945-3.126a2.864,2.864,0,0,0-.951-.227c-.5,0-.861.227-.861.634a2.584,2.584,0,0,0,1,1.54,2.5,2.5,0,0,1,.68,1.812,6,6,0,0,1-.589,2.311A30.835,30.835,0,0,1,60.391-22.867c-.453.317-.634.634-.634.861a.366.366,0,0,0,.408.317,1.181,1.181,0,0,0,.5-.136c6.389-3.443,9.877-6.479,12.958-12.868,2.583-.136,5.664-.317,9.062-.68a.513.513,0,0,1,.634.544l-.045.317a48.142,48.142,0,0,1-3.715,9.605,29.906,29.906,0,0,0-5.3-2.854,1.564,1.564,0,0,0-.589-.136c-.317,0-.5.136-.5.317,0,.272.227.589.725.861a13.724,13.724,0,0,1,4.395,3.9c-3.851,6.026-9.7,10.783-19.437,15.5-.5.227-.77.544-.77.77,0,.181.181.317.453.317a1.774,1.774,0,0,0,.589-.136c9.56-3.534,15.586-7.748,20.48-14.318.272.544.544,1.087.77,1.676a3.346,3.346,0,0,0,2.809,2.311,1.572,1.572,0,0,0,1.586-1.676,4.246,4.246,0,0,0-.634-1.9,13.26,13.26,0,0,0-2.673-3.126,82.809,82.809,0,0,0,5.12-9.877A6.628,6.628,0,0,0,87.3-35.825Z" transform="translate(726 271.498)" fill="#31393a"/>
    <path id="パス_2920" data-name="パス 2920" d="M38.615-17.147a6.462,6.462,0,0,0-1.223-.408c.906-5.165,1.767-9.877,2.311-12.46a9.42,9.42,0,0,0,.227-1.767c0-1.178-.544-1.767-2.175-1.767a8.744,8.744,0,0,0-1.042.045c-7.657.816-12.505,1.4-15.858,1.4-2.673,0-4.395-.362-5.754-1.314a2.4,2.4,0,0,0-1.359-.5.822.822,0,0,0-.861.906,3.416,3.416,0,0,0,.906,2.039A3.367,3.367,0,0,0,17-29.607c2.492,0,7.431-.68,19.075-1.223.408,0,.68.136.68.634a.575.575,0,0,1-.045.272c-.5,4.395-.68,7.476-1.4,12.143-.861.045-1.676.181-2.492.272-6.343.453-9.923.77-12.324.77a10.571,10.571,0,0,1-5.165-1.042,2.75,2.75,0,0,0-1-.272c-.544,0-.861.272-.861.725a2.974,2.974,0,0,0,1.087,1.9,4.454,4.454,0,0,0,3.534,1.359c2.311,0,6.3-.725,15.178-1.133a3.9,3.9,0,0,1,.725-.045,10.745,10.745,0,0,1,4.123.77,2.513,2.513,0,0,0,.77.136,1.107,1.107,0,0,0,1.178-1.133C40.065-16.015,39.657-16.694,38.615-17.147Zm45.9-25.1a4.068,4.068,0,0,0-2.175-.816c-.589,0-1.042.317-1.042.861a1.564,1.564,0,0,0,.136.589,3.326,3.326,0,0,1,.272,1.178,3.387,3.387,0,0,1-1.178,2.175c-6.932,7.748-12.143,12.1-23.47,18.8-.453.272-.68.589-.68.77s.136.317.408.317a1.564,1.564,0,0,0,.589-.136c7.657-3.534,12.415-6.253,18.4-11.146.816.317,1.676,1.087,1.722,4.259v1c0,4.44-.272,12.686-.5,16.22-.091,1.9.725,2.854,1.541,2.854.861,0,1.722-.951,1.631-2.9-.136-2.809-.362-5.981-.362-9.741a83.8,83.8,0,0,1,.408-8.518,8.02,8.02,0,0,0,.045-1.042c0-1.631-.589-2.945-3.081-3.353,2.13-1.812,4.44-3.9,7.068-6.389a4.341,4.341,0,0,0,1.631-2.854A2.684,2.684,0,0,0,84.513-42.248Z" transform="translate(889.592 271.487)" fill="#31393a"/>
    <path id="パス_2918" data-name="パス 2918" d="M7.551-7.495v-3.859c.352-.121.534-.231.534-.34,0-.182-.425-.291-1.262-.328v9.175a1.013,1.013,0,0,0,.218.752,4.521,4.521,0,0,0,2.087.255,8.642,8.642,0,0,0,2.124-.146.674.674,0,0,0,.376-.68.371.371,0,0,1-.352-.194,3.921,3.921,0,0,1-.17-1.578v-.522l-.328-.133-.024.291a13.906,13.906,0,0,1-.218,1.711c-.061.279-.17.461-.34.522a5.3,5.3,0,0,1-1.323.085,4.69,4.69,0,0,1-1.117-.073.423.423,0,0,1-.206-.425V-7.07a14.47,14.47,0,0,0,2.876-1.8,1.832,1.832,0,0,0,.413.073c.133,0,.206-.036.206-.121q0-.273-.837-.91A11.974,11.974,0,0,1,7.636-7.556ZM4.177-8.927H1.156l.158.3H4.177v3.058A21.027,21.027,0,0,1,.84-4.206c.279.7.5,1.056.667,1.056.109,0,.182-.182.206-.534A23.875,23.875,0,0,0,4.177-5.14v3.617h.74v-9.83c.34-.133.51-.243.51-.352,0-.194-.413-.291-1.25-.3ZM20.185-10.65c-2.5,0-5.243,1.748-5.243,4.782,0,1.468.7,2.257,1.553,2.257,1.3,0,2.937-1.8,2.937-5.765,0-.243-.012-.473-.024-.728.182-.012.352-.024.522-.024a3.33,3.33,0,0,1,3.556,3.483c0,2.743-2.682,3.7-4.952,3.726-.133.012-.206.073-.206.133s.061.121.206.146a8.871,8.871,0,0,0,.971.061c2.646,0,4.757-1.456,4.757-4.1A3.784,3.784,0,0,0,20.185-10.65Zm-1.226.837c0,3.556-1.468,5.182-2.464,5.182-.534,0-.886-.437-.886-1.323a4.074,4.074,0,0,1,3.35-4.066Zm12.173-.716v.267a4.517,4.517,0,0,1-2.755,4.3l.182.255a4.541,4.541,0,0,0,3.289-4.551v-.267h1.4V-7.6c0,.243-.146.364-.425.364a10.915,10.915,0,0,1-1.189-.073v.3a3.169,3.169,0,0,1,.886.218.48.48,0,0,1,.328.5c.728.012,1.092-.279,1.092-.886v-3.35h3.507l.133-.231-.109-.121a4.989,4.989,0,0,0-.716-.716l-.595.765H32.734v-1.019c.328-.109.485-.218.485-.328,0-.182-.388-.267-1.177-.279v1.626H27.3l.121.3Zm-3.714,3.92a6.676,6.676,0,0,0,2.269-2.427c.352-.012.534-.073.534-.194,0-.182-.34-.4-1.007-.631a7.991,7.991,0,0,1-2,3.034Zm7.1-3a6.588,6.588,0,0,1,1.893,2.318c.133.3.279.449.449.449.279,0,.413-.146.413-.437a1.9,1.9,0,0,0-.607-1.08A7.855,7.855,0,0,0,34.7-9.837Zm-2.755,3.75a4.337,4.337,0,0,1,1.3,1.626c.109.255.243.388.388.388.279,0,.413-.146.413-.437,0-.57-.643-1.177-1.93-1.8Zm3.483.461a6.014,6.014,0,0,1,1.663,2.2c.109.3.255.461.437.461.279,0,.425-.158.425-.485,0-.74-.789-1.541-2.354-2.379Zm-.1,1.238-.3-.109a6.82,6.82,0,0,1-.206,1.214.6.6,0,0,1-.51.473,11.944,11.944,0,0,1-1.444.061,12.466,12.466,0,0,1-1.541-.061.351.351,0,0,1-.291-.4V-4.886q.51-.164.51-.328,0-.273-1.2-.328v2.8a.8.8,0,0,0,.243.692,5.257,5.257,0,0,0,2,.194,16.076,16.076,0,0,0,2.755-.121.671.671,0,0,0,.51-.667.417.417,0,0,1-.376-.17A2.306,2.306,0,0,1,35.149-3.9ZM28.741-5.31a2.854,2.854,0,0,1-1.408,2.185.418.418,0,0,0-.267.376.4.4,0,0,0,.449.461,1.105,1.105,0,0,0,.813-.522A3.92,3.92,0,0,0,29.057-5.2ZM49.907-3.66a3.939,3.939,0,0,0-1.626-1c-.036-.692-.049-1.3-.049-1.857q0-.947.036-1.638a2.908,2.908,0,0,0,.837-.316c.437-.243.643-.5.643-.7,0-.17-.17-.316-.485-.376a2.423,2.423,0,0,1-.862-.316c.024-.291.036-.522.036-.716a1.136,1.136,0,0,0-.7-1.153.785.785,0,0,0-.376-.133c-.146,0-.231.073-.231.206a.91.91,0,0,0,.194.461,6.886,6.886,0,0,1,.316,2.452h-.194a3.717,3.717,0,0,1-1.893-.546.484.484,0,0,0-.243-.085.142.142,0,0,0-.158.133.4.4,0,0,0,.158.267,3.294,3.294,0,0,0,2.257.9h.085c.012.316.012.643.012.959,0,.862-.012,1.675-.036,2.282a5.649,5.649,0,0,0-1.177-.133c-1.1,0-2,.388-2,1.323,0,.886.862,1.323,1.772,1.323,1.007,0,2.063-.522,2.087-1.566a3.292,3.292,0,0,1,1,.825c.243.3.461.437.631.437s.279-.146.279-.352A1.068,1.068,0,0,0,49.907-3.66Zm-6.59-4.284c-.061,0-.133.049-.206.17a8.506,8.506,0,0,0-1.032,2.282c-.061.231-.158.316-.218.316s-.133-.085-.133-.243c0-.036.012-.085.012-.146a25.733,25.733,0,0,0,.825-4.2,1.538,1.538,0,0,0-.206-.9.841.841,0,0,0-.595-.388.224.224,0,0,0-.231.255,1.069,1.069,0,0,0,.218.534,1.292,1.292,0,0,1,.17.777,22.472,22.472,0,0,1-.667,3.9,4.033,4.033,0,0,0-.1.837,4.372,4.372,0,0,0,.34,1.663c.182.461.437.68.655.68.194,0,.34-.194.34-.546a2.072,2.072,0,0,0-.085-.546,1.892,1.892,0,0,1-.061-.485,12,12,0,0,1,1.019-3.665.406.406,0,0,0,.049-.17C43.414-7.9,43.378-7.944,43.317-7.944ZM48.366-9.57a3.813,3.813,0,0,0,.4.291c.061.049.1.1.1.133s-.024.061-.073.1a2.738,2.738,0,0,1-.473.182C48.329-9.133,48.353-9.364,48.366-9.57Zm-.752,5.4C47.6-3.32,46.739-2.92,46-2.92c-.57,0-1.08-.231-1.08-.667,0-.57.595-.85,1.359-.85a4.15,4.15,0,0,1,1.335.243Zm8,2.706a.486.486,0,0,0,.5-.546,1.336,1.336,0,0,0-.291-.813,4.663,4.663,0,0,0-2.464-1.614c-.109-.036-.182-.012-.218.049s-.024.146.073.218a5.576,5.576,0,0,1,1.82,2.2C55.2-1.609,55.356-1.463,55.611-1.463ZM72.08-9.121,72.14-9a13.784,13.784,0,0,0,4.636,5.413,2.808,2.808,0,0,1,.619-.7A13.282,13.282,0,0,1,72.31-9.376h4.466l.146-.255a8.316,8.316,0,0,0-.837-.959l-.692.91H72.08v-1.845c.352-.133.522-.255.522-.364,0-.182-.425-.291-1.262-.328v2.536H66.631l.109.3h4.126A14.091,14.091,0,0,1,66.23-3.344l.206.243a13.136,13.136,0,0,0,4.9-5.5v4.2H69.046l.109.3h2.185v2.585h.74V-4.1h2.4l.146-.255a7.9,7.9,0,0,0-.813-.862l-.631.813h-1.1ZM89.24-10.48l.146-.231a7.682,7.682,0,0,0-.825-.862l-.607.789h-5.4c.206-.4.352-.716.461-.971.388-.061.583-.133.583-.243,0-.17-.376-.34-1.129-.5a12.294,12.294,0,0,1-2.876,4.782l.218.231a10.089,10.089,0,0,0,2.573-3ZM87.3-9.291H82.141l.134.3h6.238l.146-.231a9.4,9.4,0,0,0-.777-.765Zm-.255,1.566H80.672l.121.3h6.372A8.05,8.05,0,0,0,88.524-2.58c.449.595.874.9,1.262.9q.455,0,.546-.546c-.255-.109-.376-.437-.376-.983q0-.528.109-1.857l-.316-.158q-.237,2.257-.51,2.257c-.061,0-.17-.133-.352-.413a6.957,6.957,0,0,1-1.019-3.835l.279-.17c.085-.061.133-.121.133-.17,0-.121-.243-.364-.74-.74ZM83.852-4.971A26.075,26.075,0,0,0,81.182-6.4l-.17.255a20.952,20.952,0,0,1,2.427,1.6,11.652,11.652,0,0,1-3.52,2.512l.182.255a11.938,11.938,0,0,0,3.859-2.342,12.208,12.208,0,0,1,1.651,1.59.437.437,0,0,0,.34.194c.231,0,.34-.121.34-.376q0-.564-1.893-1.893c.449-.5.85-.971,1.189-1.42.376,0,.57-.049.57-.158,0-.146-.316-.376-.959-.68A10.665,10.665,0,0,1,83.852-4.971Zm14.976-5.68c-2.5,0-5.243,1.748-5.243,4.782,0,1.468.7,2.257,1.553,2.257,1.3,0,2.937-1.8,2.937-5.765,0-.243-.012-.473-.024-.728.182-.012.352-.024.522-.024a3.33,3.33,0,0,1,3.556,3.483c0,2.743-2.682,3.7-4.952,3.726-.134.012-.206.073-.206.133s.061.121.206.146a8.871,8.871,0,0,0,.971.061c2.646,0,4.757-1.456,4.757-4.1A3.784,3.784,0,0,0,98.828-10.65ZM97.6-9.813c0,3.556-1.468,5.182-2.464,5.182-.534,0-.886-.437-.886-1.323a4.074,4.074,0,0,1,3.35-4.066Zm12.173-.716v.267a4.517,4.517,0,0,1-2.755,4.3l.182.255a4.541,4.541,0,0,0,3.289-4.551v-.267h1.4V-7.6c0,.243-.146.364-.425.364a10.915,10.915,0,0,1-1.189-.073v.3a3.169,3.169,0,0,1,.886.218.48.48,0,0,1,.328.5c.728.012,1.092-.279,1.092-.886v-3.35h3.507l.133-.231-.109-.121a4.988,4.988,0,0,0-.716-.716l-.595.765h-3.422v-1.019c.328-.109.485-.218.485-.328,0-.182-.388-.267-1.177-.279v1.626H105.94l.121.3Zm-3.714,3.92a6.676,6.676,0,0,0,2.269-2.427c.352-.012.534-.073.534-.194,0-.182-.34-.4-1.007-.631a7.991,7.991,0,0,1-2,3.034Zm7.1-3a6.588,6.588,0,0,1,1.893,2.318c.133.3.279.449.449.449.279,0,.413-.146.413-.437a1.894,1.894,0,0,0-.607-1.08,7.856,7.856,0,0,0-1.966-1.481Zm-2.755,3.75a4.337,4.337,0,0,1,1.3,1.626c.109.255.243.388.388.388.279,0,.413-.146.413-.437,0-.57-.643-1.177-1.93-1.8Zm3.483.461a6.014,6.014,0,0,1,1.663,2.2c.109.3.255.461.437.461.279,0,.425-.158.425-.485,0-.74-.789-1.541-2.354-2.379Zm-.1,1.238-.3-.109a6.819,6.819,0,0,1-.206,1.214.6.6,0,0,1-.51.473,11.944,11.944,0,0,1-1.444.061,12.466,12.466,0,0,1-1.541-.061.351.351,0,0,1-.291-.4V-4.886q.51-.164.51-.328,0-.273-1.2-.328v2.8a.8.8,0,0,0,.243.692,5.257,5.257,0,0,0,2,.194,16.076,16.076,0,0,0,2.755-.121.671.671,0,0,0,.51-.667.417.417,0,0,1-.376-.17,2.306,2.306,0,0,1-.146-1.092ZM107.384-5.31a2.854,2.854,0,0,1-1.408,2.185.418.418,0,0,0-.267.376.4.4,0,0,0,.449.461,1.105,1.105,0,0,0,.813-.522A3.92,3.92,0,0,0,107.7-5.2Z" transform="translate(794.8 298.014)" fill="#31393a"/>
  </g>
</svg>
