<svg xmlns="http://www.w3.org/2000/svg" width="9.5" height="10" viewBox="0 0 9.5 10">
  <g id="グループ_83" data-name="グループ 83" transform="translate(1333.25 1548.5) rotate(180)">
    <path id="合体_4" data-name="合体 4" d="M4.22.22l-4,4a.749.749,0,0,0,0,1.06l4,4A.75.75,0,0,0,5.281,8.22L1.81,4.75l3.47-3.469A.75.75,0,1,0,4.22.22Z" transform="translate(1333.25 1543) rotate(90)" fill="#4f636e"/>
    <path id="合体_7" data-name="合体 7" d="M4.22.22l-4,4a.749.749,0,0,0,0,1.06l4,4A.75.75,0,0,0,5.281,8.22L1.81,4.75l3.47-3.469A.75.75,0,1,0,4.22.22Z" transform="translate(1333.25 1538.5) rotate(90)" fill="#4f636e"/>
  </g>
</svg>
