<svg xmlns="http://www.w3.org/2000/svg" width="24" height="19.502" viewBox="0 0 24 19.502">
  <g id="tw" transform="translate(-1595 -73)">
    <g id="Logo_1_" transform="translate(1595 73)">
      <path id="white_background" d="M22.543,6.352c.015.212.015.423.015.637A13.915,13.915,0,0,1,8.548,21v0A13.939,13.939,0,0,1,1,18.788a10.016,10.016,0,0,0,1.172.071,9.887,9.887,0,0,0,6.115-2.112,4.93,4.93,0,0,1-4.6-3.419,4.908,4.908,0,0,0,2.223-.085A4.924,4.924,0,0,1,1.96,8.416V8.354A4.893,4.893,0,0,0,4.2,8.97,4.93,4.93,0,0,1,2.671,2.4,13.975,13.975,0,0,0,12.819,7.54,4.929,4.929,0,0,1,21.21,3.049a9.88,9.88,0,0,0,3.127-1.2,4.942,4.942,0,0,1-2.165,2.723A9.793,9.793,0,0,0,25,3.8,10,10,0,0,1,22.543,6.352Z" transform="translate(-1 -1.497)" fill="#31393a"/>
    </g>
  </g>
</svg>
